<?xml version="1.0" encoding="UTF-8"?>
<!-- Created with Inkscape (http://www.inkscape.org/) -->
<svg width="246.82mm" height="67.462mm" version="1.1" viewBox="0 0 246.82 67.462" xml:space="preserve" xmlns="http://www.w3.org/2000/svg"><g transform="translate(15.393 306.08)"><g fill="#7a7170" stroke-width=".26458" aria-label="DENEB"><path d="m-3.7431-296.24h11.199c6.4121 0 9.6633 5.8702 9.6633 11.74v24.203c0 5.8702-3.2512 11.831-9.6633 11.831h-11.199zm-11.65 57.618h22.849c14.179 0 21.313-10.837 21.313-21.675v-24.203c0-10.837-7.1346-21.584-21.313-21.584h-22.849z"/><path d="m48.095-267.43h25.197v-9.8439h-25.197v-18.965h28.9v-9.8439h-40.55v67.462h41.453v-9.8439h-29.803z"/><path d="m117.18-306.08v53.645l-1.0837-8.4892-13.005-45.156h-17.52v67.462h11.65v-53.554l1.0837 8.3086 13.005 45.246h17.52v-67.462z"/><path d="m149.51-267.43h25.197v-9.8439h-25.197v-18.965h28.9v-9.8439h-40.55v67.462h41.453v-9.8439h-29.803z"/><path d="m198.64-248.46v-20.862h11.199c6.4121 0 9.6633 5.238 9.6633 10.476 0 5.238-3.2512 10.386-9.6633 10.386zm-11.65-57.618v67.462h22.849c14.359 0 21.584-9.7536 21.584-19.417 0-6.5024-3.2512-13.005-9.7536-16.527 4.6962-3.3415 7.0443-8.7602 7.0443-14.089 0-8.7602-6.2315-17.43-18.875-17.43zm11.65 26.913v-17.069h11.199c4.6059 0 6.954 4.3349 6.954 8.5796 0 4.2446-2.3481 8.4892-6.954 8.4892z"/></g></g></svg>
