<?xml version="1.0" encoding="UTF-8"?>
<svg clip-rule="evenodd" fill-rule="evenodd" stroke-linejoin="round" stroke-miterlimit="2" version="1.1" viewBox="0 0 1959 1959" xml:space="preserve" xmlns="http://www.w3.org/2000/svg">
    <g transform="translate(-275 -336)">
        <g transform="matrix(1.0003 -.0063842 .0063842 1.0003 -5.2848 1.6751)">
            <path d="m1387.2 448.03c417.24 4.236 752.49 396.94 748.81 877.14-3.66 477.59-341.34 862.37-756.33 861.83l0.45-453.97c166.53 0.32 301.72-185.47 301.95-414.97 0.22-228-132.91-413.67-298.35-416.08l3.47-453.95z" fill="url(#_Radial1)"/>
        </g>
        <g transform="matrix(.99856 0 0 .9982 -4.2404 -5.1936)">
            <rect x="395" y="447" width="997" height="455" fill="url(#_Linear2)"/>
        </g>
        <g transform="translate(275 330)">
            <path d="m1110.8 111v2e-3c417.15 1.923 754.71 392.48 754.1 872.64-0.62 477.77-335.95 864.84-751.08 866.94l-2.45-454.12c166.59-0.74 300.64-187.45 299.4-417.03-1.23-227.55-134.98-412.11-299.97-414.3v0.045h-995.56v-454.18h995.56z" fill="url(#_Radial3)"/>
        
        
            <path d="m1739.9 1461.3c-134.3 233.46-364.07 387.76-625.56 389.32v0.67h-972v-455h972v0.17c99.01-1.78 186.25-69.27 239.99-172.2l385.74 236.75c-0.05 0.09-0.11 0.19-0.17 0.29z" fill="#ffa448"/>
        </g>
        <g transform="translate(-2 -4)">
            <path d="m849 2185h-453.83c-0.469-286.76 0.298-691.51-0.171-978.28 248.71-114.1 66.121-20.69 454-199.72v1178z" fill="#ffc000"/>
        </g>
    </g>
    <defs>
        <radialGradient id="_Radial1" cx="0" cy="0" r="1" gradientTransform="matrix(1.1612e-13 1896.3 -1896.3 1.1612e-13 1379.6 448.03)" gradientUnits="userSpaceOnUse"><stop stop-color="#f58045" offset="0"/><stop stop-color="#f68949" offset=".5"/><stop stop-color="#f89d42" offset="1"/></radialGradient>
        <linearGradient id="_Linear2" x2="1" gradientTransform="matrix(997,0,0,997,395,674.5)" gradientUnits="userSpaceOnUse"><stop stop-color="#c55b4f" offset="0"/><stop stop-color="#e2794b" offset=".5"/><stop stop-color="#f58045" offset="1"/></linearGradient>
        <radialGradient id="_Radial3" cx="0" cy="0" r="1" gradientTransform="matrix(-1389.8 -1331.2 1331.2 -1389.8 1567.2 1493.6)" gradientUnits="userSpaceOnUse"><stop stop-color="#ff934a" offset="0"/><stop stop-color="#ff8d4d" offset=".35"/><stop stop-color="#ff8053" offset=".47"/><stop stop-color="#ff735a" offset=".58"/><stop stop-color="#e25693" offset=".83"/><stop stop-color="#a83477" offset="1"/></radialGradient>
    </defs>
</svg>
